<svg xmlns="http://www.w3.org/2000/svg" viewBox="0 0 1600 900" width="1600" height="900">
  <rect width="1600" height="900" fill="#ffffff"/>
  <defs>
    <g id="xh">
      <path d="M0,-30 C12,-34 26,-24 28,-8 C30,6 24,22 12,28 C0,33 -14,31 -24,22 C-34,12 -34,-6 -26,-18 C-18,-30 -8,-32 0,-30Z" fill="#1a1a1a"/>
      <circle cx="-9" cy="-7" r="3" fill="#ffffff"/>
      <circle cx="9" cy="-7" r="3" fill="#ffffff"/>
      <path d="M-9,28 L-11,42 M9,28 L11,42" stroke="#1a1a1a" stroke-width="4" stroke-linecap="round"/>
    </g>
    <g id="brick">
      <rect x="-52" y="-22" width="104" height="44" fill="#ffffff" stroke="#1a1a1a" stroke-width="3"/>
      <path d="M-40,-10 L-24,-10 M-14,-10 L2,-10 M12,-10 L28,-10 M38,-10 L54,-10" stroke="#1a1a1a" stroke-width="2"/>
    </g>
  </defs>

  <style>
    .n { font-family: "Comic Sans MS","Segoe Script","Brush Script MT",cursive; }
  </style>

  <path d="M120,680 L1500,680" stroke="#1a1a1a" stroke-width="4" stroke-linecap="round"/>

  <g transform="translate(1280,640)">
    <use href="#brick"/>
    <use href="#brick" transform="translate(110,0)"/>
    <use href="#brick" transform="translate(55,-46)"/>
    <use href="#brick" transform="translate(165,-46)"/>
    <use href="#brick" transform="translate(110,-92)"/>
    <use href="#brick" transform="translate(220,-92)"/>
  </g>

  <use href="#xh" transform="translate(1030,600) scale(1.3)"/>
  <path d="M26,4 L70,8" stroke="#1a1a1a" stroke-width="5" stroke-linecap="round"/>
  <g transform="translate(1080,556) rotate(6)">
    <use href="#brick"/>
  </g>
  <path d="M1170,520 C1210,510 1240,512 1260,522" fill="none" stroke="#e8862d" stroke-width="4" stroke-linecap="round" stroke-dasharray="10 8" marker-end="url(#arr)"/>

  <use href="#xh" transform="translate(860,600) scale(1.1)"/>
  <path d="M-26,4 L-60,10" stroke="#1a1a1a" stroke-width="5" stroke-linecap="round"/>
  <g transform="translate(790,562) rotate(-6)">
    <use href="#brick"/>
  </g>

  <g transform="translate(220,620) scale(0.95)">
    <use href="#xh"/>
    <path d="M-22,-2 C-42,-14 -54,-18 -66,-12" fill="none" stroke="#1a1a1a" stroke-width="4" stroke-linecap="round"/>
  </g>
  <g transform="translate(212,510)">
    <path d="M-20,-6 L-12,-50 C-8,-58 18,-58 22,-50 L30,-6 Z" fill="#ffffff" stroke="#1a1a1a" stroke-width="3" stroke-linejoin="round"/>
    <path d="M-22,-6 L32,-6" stroke="#1a1a1a" stroke-width="3" stroke-linecap="round"/>
  </g>
  <g transform="translate(120,668)">
    <rect x="-34" y="-30" width="68" height="30" fill="#ffffff" stroke="#1a1a1a" stroke-width="3"/>
    <path d="M-18,-18 C-26,-34 -10,-42 0,-34 C6,-42 22,-34 12,-20" fill="none" stroke="#1a1a1a" stroke-width="3" stroke-linecap="round"/>
  </g>
  <text x="300" y="230" text-anchor="middle" class="n" font-size="26" fill="#3d6ea8" transform="rotate(-3 300 230)">chef: still on dish #1</text>

  <text x="980" y="160" text-anchor="middle" class="n" font-size="44" fill="#1a1a1a">same brick</text>
  <text x="980" y="215" text-anchor="middle" class="n" font-size="32" fill="#d64545">boring. wins.</text>
  <text x="980" y="780" text-anchor="middle" class="n" font-size="28" fill="#3d6ea8">a million hands, one identical step</text>

  <defs>
    <marker id="arr" viewBox="0 0 12 12" refX="10" refY="6" markerWidth="10" markerHeight="10" orient="auto">
      <path d="M0,0 L12,6 L0,12 Z" fill="#e8862d"/>
    </marker>
  </defs>
</svg>
